
<svg xmlns="http://www.w3.org/2000/svg" xmlns:xlink="http://www.w3.org/1999/xlink" width="60pt" height="60pt" viewBox="0 0 60 60" version="1.1">
<g id="surface1">
<path style=" stroke:none;fill-rule:nonzero;fill:#A7A7A7;fill-opacity:1;" d="M 7.894531 9.867188 C 5.710938 9.867188 3.949219 11.632813 3.949219 13.816406 L 3.949219 45.394531 C 3.949219 47.578125 5.710938 49.34375 7.894531 49.34375 L 51.316406 49.34375 C 53.496094 49.34375 55.261719 47.578125 55.261719 45.394531 L 55.261719 13.816406 C 55.261719 11.632813 53.496094 9.867188 51.316406 9.867188 Z M 45.394531 15.789063 C 47.578125 15.789063 49.34375 17.554688 49.34375 19.738281 C 49.34375 21.917969 47.578125 23.683594 45.394531 23.683594 C 43.210938 23.683594 41.449219 21.917969 41.449219 19.738281 C 41.449219 17.554688 43.210938 15.789063 45.394531 15.789063 Z M 17.761719 23.683594 C 18.988281 23.683594 20.207031 24.15625 21.140625 25.085938 L 31.886719 35.835938 C 32.71875 36.667969 34.0625 36.660156 34.902344 35.828125 C 35.734375 34.996094 35.734375 33.636719 34.902344 32.804688 L 32.628906 30.53125 L 34.125 29.035156 C 35.988281 27.167969 39.011719 27.167969 40.875 29.035156 L 49.34375 37.5 L 49.34375 43.421875 L 9.867188 43.421875 L 9.867188 29.605469 L 14.386719 25.085938 C 15.320313 24.15625 16.539063 23.683594 17.761719 23.683594 Z "/>
</g>
</svg>
