<svg width="29" height="29" viewBox="0 0 29 29" fill="none" xmlns="http://www.w3.org/2000/svg">
<path d="M29 22.4704C27.9451 22.7386 27.2926 22.4822 26.7072 21.6031L22.5439 15.843L21.9421 15.0455L17.0801 21.6221C16.5246 22.4133 15.9418 22.7577 14.9051 22.4776L21.131 14.1202L15.3347 6.57114C16.3315 6.3772 17.0203 6.47598 17.632 7.36864L21.9503 13.2004L26.3003 7.40036C26.8576 6.6092 27.4567 6.30833 28.4572 6.60014L26.2097 9.57989L23.1647 13.5447C22.8022 13.9979 22.852 14.3078 23.1855 14.7455L29 22.4704ZM0.00725 13.9806L0.516563 11.4758C1.90312 6.51858 7.58531 4.45867 11.5039 7.5218C13.794 9.32342 14.3632 11.8718 14.2499 14.7265H1.34125C1.14731 19.8649 4.84572 22.9661 9.56094 21.3838C11.2148 20.8283 12.1891 19.5332 12.6766 17.9129C12.924 17.1009 13.3337 16.974 14.0967 17.206C13.707 19.2324 12.828 20.9252 10.9702 21.9846C8.19431 23.5706 4.23219 23.0576 2.14781 20.8536C0.90625 19.5749 0.393313 17.9545 0.163125 16.2218C0.126875 15.9354 0.054375 15.6626 0 15.388C0.00483333 14.9192 0.00725 14.4504 0.00725 13.9815V13.9806ZM1.36481 13.6363H13.0301C12.9539 9.92064 10.6403 7.28164 7.47837 7.25898C4.00744 7.2318 1.51525 9.80826 1.36481 13.6363Z" fill="#F9FAFB"/>
</svg>
