<svg width="26" height="38" viewBox="0 0 26 38" fill="none" xmlns="http://www.w3.org/2000/svg">
<g clip-path="url(#clip0_2_32)">
<path d="M12.825 19.0001C12.825 17.3204 13.5006 15.7095 14.7031 14.5217C15.9057 13.334 17.5368 12.6667 19.2375 12.6667C20.9382 12.6667 22.5692 13.334 23.7718 14.5217C24.9743 15.7095 25.65 17.3204 25.65 19.0001C25.65 20.6798 24.9743 22.2907 23.7718 23.4784C22.5692 24.6661 20.9382 25.3334 19.2375 25.3334C17.5368 25.3334 15.9057 24.6661 14.7031 23.4784C13.5006 22.2907 12.825 20.6798 12.825 19.0001Z" fill="#1ABCFE"/>
<path d="M0 31.6666C0 29.9869 0.675601 28.376 1.87818 27.1882C3.08075 26.0005 4.7118 25.3333 6.4125 25.3333H12.825V31.6666C12.825 33.3463 12.1494 34.9572 10.9468 36.1449C9.74425 37.3327 8.1132 37.9999 6.4125 37.9999C4.7118 37.9999 3.08075 37.3327 1.87818 36.1449C0.675601 34.9572 0 33.3463 0 31.6666Z" fill="#0ACF83"/>
<path d="M12.825 0V12.6667H19.2375C20.9382 12.6667 22.5692 11.9994 23.7718 10.8117C24.9743 9.62394 25.65 8.01303 25.65 6.33333C25.65 4.65363 24.9743 3.04272 23.7718 1.85499C22.5692 0.66726 20.9382 0 19.2375 0L12.825 0Z" fill="#FF7262"/>
<path d="M0 6.33333C0 8.01303 0.675601 9.62394 1.87818 10.8117C3.08075 11.9994 4.7118 12.6667 6.4125 12.6667H12.825V0H6.4125C4.7118 0 3.08075 0.66726 1.87818 1.85499C0.675601 3.04272 0 4.65363 0 6.33333Z" fill="#F24E1E"/>
<path d="M0 19.0001C0 20.6798 0.675601 22.2907 1.87818 23.4784C3.08075 24.6661 4.7118 25.3334 6.4125 25.3334H12.825V12.6667H6.4125C4.7118 12.6667 3.08075 13.334 1.87818 14.5217C0.675601 15.7095 0 17.3204 0 19.0001Z" fill="#A259FF"/>
</g>
<defs>
<clipPath id="clip0_2_32">
<rect width="25.65" height="38" fill="white"/>
</clipPath>
</defs>
</svg>
