<svg width="17" height="36" viewBox="0 0 17 36" fill="none" xmlns="http://www.w3.org/2000/svg">
<g clip-path="url(#clip0_2_38)">
<path d="M11.5826 4.01245C10.065 2.2198 8.75822 0.399144 8.49124 0.0210076C8.46313 -0.00700252 8.42097 -0.00700252 8.39287 0.0210076C8.12588 0.399144 6.81905 2.2198 5.30146 4.01245C-7.72456 20.5524 7.35304 31.7145 7.35304 31.7145L7.4795 31.7985C7.59191 33.5212 7.87294 36 7.87294 36H8.43502H8.99709C8.99709 36 9.27814 33.5351 9.39055 31.7985L9.517 31.7005C9.53106 31.7005 24.6086 20.5524 11.5826 4.01245ZM8.43502 31.4623C8.43502 31.4623 7.76054 30.8881 7.57787 30.594V30.5661L8.39287 12.5555C8.39287 12.4995 8.47719 12.4995 8.47719 12.5555L9.29218 30.5661V30.594C9.1095 30.8881 8.43502 31.4623 8.43502 31.4623Z" fill="#00684A"/>
</g>
<defs>
<clipPath id="clip0_2_38">
<rect width="16.7442" height="36" fill="white"/>
</clipPath>
</defs>
</svg>
