<svg width="28" height="31" viewBox="0 0 28 31" fill="none" xmlns="http://www.w3.org/2000/svg">
<g clip-path="url(#clip0_2_25)">
<path d="M14.0494 30.9999C13.6229 30.9999 13.2248 30.8869 12.8551 30.6892L9.07306 28.4577C8.50434 28.147 8.78868 28.0341 8.95932 27.9776C9.72711 27.7234 9.86928 27.6669 10.6655 27.2149C10.7508 27.1584 10.8645 27.1867 10.9498 27.2432L13.8504 28.9662C13.9641 29.0227 14.1063 29.0227 14.1916 28.9662L25.5378 22.4413C25.6515 22.3848 25.7084 22.2718 25.7084 22.1306V9.10907C25.7084 8.96785 25.6515 8.85487 25.5378 8.79837L14.1916 2.30176C14.0779 2.24527 13.9357 2.24527 13.8504 2.30176L2.50424 8.79837C2.3905 8.85487 2.33362 8.9961 2.33362 9.10907V22.1306C2.33362 22.2436 2.3905 22.3848 2.50424 22.4413L5.60382 24.2208C7.28157 25.0682 8.3337 24.0796 8.3337 23.091V10.2389C8.3337 10.0694 8.47591 9.9 8.67494 9.9H10.1252C10.2958 9.9 10.4664 10.0412 10.4664 10.2389V23.091C10.4664 25.3224 9.24366 26.6218 7.11093 26.6218C6.45691 26.6218 5.94506 26.6218 4.49478 25.9156L1.50897 24.2208C0.76962 23.7971 0.314636 23.0062 0.314636 22.1589V9.13733C0.314636 8.28997 0.76962 7.49907 1.50897 7.07536L12.8551 0.550491C13.566 0.155045 14.5329 0.155045 15.2438 0.550491L26.5899 7.07536C27.3293 7.49907 27.7842 8.28997 27.7842 9.13733V22.1589C27.7842 23.0062 27.3293 23.7971 26.5899 24.2208L15.2438 30.7457C14.9025 30.8869 14.476 30.9999 14.0494 30.9999Z" fill="#5FA04E"/>
<path d="M17.5756 22.0459C12.5992 22.0459 11.5755 19.7862 11.5755 17.8655C11.5755 17.6961 11.7176 17.5266 11.9167 17.5266H13.3954C13.566 17.5266 13.7082 17.6395 13.7082 17.809C13.9357 19.3061 14.5897 20.0405 17.604 20.0405C19.9926 20.0405 21.0164 19.5038 21.0164 18.2327C21.0164 17.4983 20.732 16.9616 17.0068 16.5944C13.9072 16.2837 11.9736 15.6058 11.9736 13.1484C11.9736 10.8604 13.9072 9.50464 17.149 9.50464C20.7889 9.50464 22.5803 10.7475 22.8078 13.4591C22.8078 13.5439 22.7794 13.6286 22.7225 13.7133C22.6657 13.7698 22.5803 13.8263 22.495 13.8263H20.9879C20.8457 13.8263 20.7036 13.7133 20.6751 13.5721C20.3339 12.0185 19.4523 11.5101 17.1206 11.5101C14.5044 11.5101 14.1916 12.414 14.1916 13.0919C14.1916 13.911 14.5613 14.1653 18.0874 14.6172C21.5851 15.0691 23.2344 15.7188 23.2344 18.148C23.2344 20.6336 21.1585 22.0459 17.5756 22.0459Z" fill="#5FA04E"/>
</g>
<defs>
<clipPath id="clip0_2_25">
<rect width="28" height="31" fill="white"/>
</clipPath>
</defs>
</svg>
