<svg width="29" height="25" viewBox="0 0 29 25" fill="none" xmlns="http://www.w3.org/2000/svg">
<g clip-path="url(#clip0_0_317)">
<path d="M23.843 8.09472C23.5344 7.99222 23.2232 7.89727 22.9097 7.80996C22.9623 7.60162 23.0108 7.39581 23.0539 7.19362C23.7604 3.87334 23.2985 1.19845 21.7208 0.317744C20.208 -0.526554 17.734 0.353819 15.2355 2.45875C14.9892 2.66657 14.7485 2.88039 14.5134 3.09998C14.356 2.95396 14.1958 2.81077 14.033 2.67049C11.4144 0.419827 8.78964 -0.528747 7.21357 0.354476C5.70219 1.20141 5.25465 3.71599 5.89078 6.8627C5.95407 7.17435 6.02553 7.48439 6.10509 7.79252C5.73356 7.89472 5.37506 8.00349 5.03196 8.11928C1.96184 9.15546 0.00121307 10.7793 0.00121307 12.4636C0.00121307 14.2032 2.10603 15.948 5.3037 17.006C5.56294 17.0914 5.82434 17.1706 6.08765 17.2434C6.00213 17.5753 5.92621 17.9094 5.85997 18.2454C5.25352 21.3375 5.72711 23.7926 7.23441 24.6342C8.79122 25.5033 11.4042 24.6101 13.9484 22.4571C14.1547 22.2821 14.3564 22.1021 14.5535 21.9173C14.8081 22.1551 15.0694 22.3859 15.3373 22.6096C17.8019 24.6625 20.2359 25.4914 21.7417 24.6476C23.297 23.776 23.8026 21.1385 23.1463 17.9296C23.0946 17.6782 23.0366 17.428 22.9724 17.1794C23.1559 17.1267 23.336 17.0726 23.5116 17.0162C26.8359 15.9501 28.9988 14.2264 28.9988 12.4636C28.9988 10.7731 26.9749 9.13836 23.843 8.09472ZM23.122 15.8781C22.9635 15.9288 22.8008 15.9778 22.635 16.0255C22.268 14.9009 21.7727 13.705 21.1666 12.4694C21.745 11.2632 22.2212 10.0827 22.5779 8.96533C22.8745 9.04844 23.1624 9.13605 23.4399 9.22849C26.1233 10.1228 27.7601 11.4448 27.7601 12.4636C27.7601 13.5487 25.9923 14.9573 23.122 15.8781ZM21.9311 18.1625C22.2213 19.5813 22.2626 20.8642 22.0704 21.8672C21.8978 22.7684 21.5505 23.3692 21.121 23.6098C20.2072 24.1219 18.2529 23.4563 16.1453 21.7006C15.8961 21.4927 15.653 21.278 15.4162 21.057C16.2333 20.192 17.0499 19.1864 17.8469 18.0695C19.2487 17.9491 20.5731 17.7522 21.7741 17.4834C21.832 17.7085 21.8843 17.935 21.9311 18.1625ZM9.88713 23.5214C8.99432 23.8265 8.2832 23.8353 7.85333 23.5954C6.93866 23.0847 6.55841 21.1134 7.07708 18.4691C7.13873 18.1566 7.20933 17.8458 7.28878 17.5372C8.47655 17.7915 9.7913 17.9744 11.1964 18.0847C11.9989 19.1776 12.839 20.1821 13.6857 21.0617C13.5058 21.2303 13.3216 21.3945 13.1333 21.5543C12.0081 22.5062 10.8807 23.1817 9.88713 23.5214ZM5.70445 15.8714C4.29048 15.4035 3.12276 14.7955 2.32238 14.132C1.6031 13.5358 1.24007 12.9438 1.24007 12.4636C1.24007 11.4414 2.81421 10.1377 5.43973 9.25163C5.75837 9.14417 6.09184 9.04274 6.43789 8.94757C6.80081 10.0901 7.27678 11.2847 7.85118 12.4927C7.2693 13.7186 6.78654 14.9323 6.4201 16.0884C6.17975 16.0217 5.94113 15.9494 5.70445 15.8714ZM7.10653 6.63233C6.56158 3.93638 6.92348 1.90272 7.8343 1.39231C8.80436 0.848665 10.9495 1.62377 13.2105 3.5672C13.358 3.69421 13.503 3.8238 13.6456 3.9559C12.8031 4.83167 11.9707 5.82871 11.1754 6.91511C9.81158 7.03748 8.50612 7.23397 7.30589 7.49724C7.23194 7.21064 7.16547 6.92228 7.10653 6.63244V6.63233ZM19.6148 9.62224C19.3313 9.14822 19.0373 8.68016 18.733 8.2184C19.6582 8.33167 20.5447 8.482 21.3771 8.66577C21.1272 9.44121 20.8157 10.2518 20.4491 11.083C20.181 10.5907 19.9029 10.1037 19.6148 9.62224ZM14.5139 4.81292C15.0853 5.41215 15.6575 6.08112 16.2204 6.807C15.0786 6.7548 13.9349 6.75458 12.7931 6.80634C13.3565 6.08715 13.9337 5.41906 14.5139 4.81292ZM9.38035 9.63046C9.09585 10.1081 8.8229 10.5921 8.56173 11.082C8.20108 10.2538 7.89241 9.43945 7.64038 8.65305C8.46772 8.47388 9.34999 8.32739 10.2693 8.21621C9.9616 8.68079 9.66519 9.1523 9.38035 9.63035V9.63046ZM10.2957 16.7963C9.34592 16.6936 8.45039 16.5547 7.62328 16.3804C7.87927 15.5799 8.19473 14.7482 8.56321 13.9023C8.82541 14.3926 9.09949 14.8769 9.38522 15.3547C9.67905 15.8459 9.9833 16.3271 10.2957 16.7963ZM14.5482 20.1987C13.961 19.5855 13.3753 18.9071 12.8034 18.1775C13.3587 18.1986 13.9247 18.2093 14.5 18.2093C15.0911 18.2093 15.6753 18.1965 16.2504 18.1717C15.6857 18.9145 15.1156 19.5938 14.5482 20.1987ZM20.4607 13.8591C20.8483 14.7143 21.175 15.5416 21.4344 16.3284C20.5937 16.5141 19.6859 16.6637 18.7295 16.7748C19.036 16.3044 19.3328 15.8282 19.6197 15.3465C19.9114 14.8568 20.1918 14.3609 20.4607 13.8591ZM18.5466 14.7473C18.1074 15.486 17.6435 16.2106 17.1556 16.92C16.2718 16.9806 15.386 17.0107 14.5 17.0103C13.5976 17.0103 12.7198 16.9831 11.8746 16.93C11.374 16.2222 10.9012 15.4963 10.4572 14.7539H10.4573C10.0155 14.0155 9.60277 13.261 9.22007 12.4922C9.60179 11.7232 10.0133 10.9684 10.4536 10.2294L10.4535 10.2295C10.8937 9.49025 11.3627 8.76747 11.8595 8.0627C12.7219 7.99954 13.6062 7.96665 14.4999 7.96665H14.5C15.3978 7.96665 16.2833 7.99987 17.1454 8.06347C17.6372 8.76718 18.1032 9.48747 18.5426 10.223C18.9844 10.9604 19.4013 11.7115 19.7926 12.4752C19.4053 13.2467 18.9897 14.0045 18.5466 14.7473ZM21.1021 1.35656C22.073 1.89866 22.4507 4.08474 21.8406 6.95152C21.8016 7.13441 21.7579 7.3207 21.7103 7.50963C20.5072 7.24077 19.2008 7.04088 17.833 6.91665C17.0363 5.81829 16.2106 4.81972 15.3818 3.95524C15.599 3.75256 15.8214 3.55513 16.0488 3.36314C18.1896 1.55974 20.1905 0.847678 21.1021 1.35656ZM14.5 9.957C15.9301 9.957 17.0894 11.0793 17.0894 12.4636C17.0894 13.8479 15.9301 14.9702 14.5 14.9702C13.07 14.9702 11.9106 13.8479 11.9106 12.4636C11.9106 11.0793 13.07 9.957 14.5 9.957Z" fill="#00D8FF"/>
</g>
<defs>
<clipPath id="clip0_0_317">
<rect width="29" height="25" fill="white"/>
</clipPath>
</defs>
</svg>
