<svg width="50" height="36" viewBox="0 0 50 36" fill="none" xmlns="http://www.w3.org/2000/svg">
<path d="M39.5126 19.4669C37.9924 19.4729 36.6758 19.7497 35.5727 20.1629C35.1694 19.5517 34.7602 19.0139 34.692 18.6142C34.6119 18.1477 34.519 17.8687 34.6159 17.3129C34.7127 16.7572 35.1368 15.9697 35.1309 15.9104C35.1249 15.8512 35.036 15.5684 34.1592 15.5632C33.2825 15.5587 32.5322 15.6914 32.4443 15.8669C32.3563 16.0424 32.1873 16.4377 32.0825 16.8502C31.9293 17.4532 30.332 19.6049 29.4256 20.7299C29.129 20.2904 28.877 19.9034 28.8246 19.5974C28.7445 19.1309 28.6516 18.8519 28.7485 18.2962C28.8454 17.7404 29.2694 16.9529 29.2635 16.8937C29.2575 16.8344 29.1686 16.5517 28.2918 16.5464C27.4151 16.5419 26.6649 16.6747 26.5769 16.8502C26.4889 17.0257 26.394 17.4359 26.2151 17.8334C26.0352 18.2302 23.913 21.8189 23.3566 22.7497C23.0729 23.2237 22.8267 23.6047 22.6528 23.8642L22.6518 23.8627C22.6518 23.8627 22.6409 23.8799 22.6231 23.9092C22.4739 24.1304 22.3859 24.2527 22.3859 24.2527C22.3859 24.2527 22.3869 24.2542 22.3889 24.2572C22.2703 24.4199 22.1437 24.5707 22.0815 24.5707C22.038 24.5707 21.95 24.1379 22.1002 23.5439C22.4165 22.2989 23.1747 20.3579 23.1678 20.2904C23.1638 20.2559 23.3091 19.9177 22.6726 19.7407C22.0538 19.5689 21.8334 19.8554 21.777 19.8562C21.7227 19.8569 21.6821 19.9574 21.6821 19.9574C21.6821 19.9574 22.3711 17.7742 20.3675 17.7742C19.1142 17.7742 17.3785 18.8144 16.5235 19.7572C15.9838 19.9807 14.8283 20.4592 13.6036 20.9699C13.1331 21.1664 12.6527 21.3667 12.1971 21.5572C12.1664 21.5309 12.1348 21.5054 12.1032 21.4792C9.67258 19.5119 5.1811 18.1207 5.37088 15.4754C5.44007 14.5139 5.88092 11.9819 14.0029 8.91142C20.6561 6.39592 25.9828 7.08817 26.9031 8.62192C28.2177 10.8142 24.0564 14.8874 17.1472 15.4754C14.5149 15.6997 13.1282 14.9249 12.7832 14.6369C12.4204 14.3332 12.3661 14.3197 12.2307 14.3767C12.0102 14.4697 12.1496 14.7374 12.2307 14.8972C12.4372 15.3044 13.2834 16.0267 14.7265 16.3867C15.9966 16.7032 19.0875 16.8764 22.8248 15.7792C27.0118 14.5507 30.2806 11.1322 29.3198 8.27542C28.3432 5.36992 21.9935 4.41442 15.9838 6.03442C12.4027 6.99892 8.53093 8.51242 5.74649 10.4879C2.4362 12.8369 1.90837 14.8822 2.12583 15.7364C2.89879 18.7724 8.4133 20.7494 10.6215 22.2142C10.5128 22.2599 10.41 22.3027 10.317 22.3417C9.20999 22.7572 5.00615 24.4267 3.95445 26.1899C2.7614 28.1902 4.14423 29.6257 5.05952 29.8192C7.89536 30.4177 10.8053 29.3407 12.37 27.5707C13.9337 25.8014 13.743 23.4967 13.0254 22.4452C13.0165 22.4324 13.0066 22.4197 12.9977 22.4062C13.2834 22.2779 13.5749 22.1474 13.8636 22.0184C14.427 21.7672 14.9805 21.5332 15.4599 21.3352C15.191 21.8932 14.9943 22.5629 14.8925 23.5297C14.7719 24.6652 15.3858 26.1329 16.1884 26.7104C16.5422 26.9647 16.9673 26.9707 17.2361 26.9707C18.1702 26.9707 18.5962 26.3812 19.0657 25.6837C19.641 24.8287 20.152 23.8327 20.152 23.8327C20.152 23.8327 19.5115 26.5222 21.2571 26.5222C21.8937 26.5222 22.5332 25.8959 22.8188 25.5772C22.8198 25.5809 22.8198 25.5824 22.8198 25.5824C22.8198 25.5824 22.8366 25.5614 22.8693 25.5202C22.9355 25.4437 22.973 25.3949 22.973 25.3949C22.973 25.3949 22.974 25.3897 22.976 25.3807C23.232 25.0439 23.7994 24.2759 24.6494 23.0092C25.7486 21.3727 26.8023 19.3222 26.8023 19.3222C26.8023 19.3222 26.9001 19.8232 27.2214 20.6527C27.4101 21.1402 27.8115 21.6794 28.1287 22.1969C27.8737 22.4654 27.7176 22.6192 27.7176 22.6192C27.7176 22.6192 27.7185 22.6222 27.7215 22.6274C27.5179 22.8329 27.2896 23.0542 27.0504 23.2702C26.1825 24.0539 25.1496 24.9494 25.0112 25.2074C24.8481 25.5119 24.8867 25.7354 25.202 25.9162C25.4323 26.0474 25.8415 26.0684 26.2695 26.0467C27.0494 26.0069 27.597 25.8599 27.8678 25.7707C28.2899 25.6574 28.7811 25.4797 29.2417 25.2224C30.0928 24.7477 30.6058 24.0689 30.5564 23.1689C30.5287 22.6732 30.3211 22.1819 30.0572 21.7184C30.1343 21.6344 30.2114 21.5489 30.2895 21.4634C31.6308 19.9754 32.6716 18.3404 32.6716 18.3404C32.6716 18.3404 32.7695 18.8414 33.0907 19.6709C33.2528 20.0902 33.5741 20.5484 33.8627 20.9969C32.6014 21.7747 31.8196 22.6784 31.5478 23.2709C31.0456 24.3674 31.439 24.8639 32.1764 24.9772C32.5105 25.0282 32.983 24.9119 33.3378 24.7979C33.7797 24.6869 34.3105 24.5017 34.8066 24.2249C35.6577 23.7502 36.4761 23.0857 36.4267 22.1864C36.404 21.7769 36.2577 21.3704 36.059 20.9804C37.1285 20.6422 38.5123 20.4547 40.2757 20.6107C44.0585 20.9459 44.7998 22.7377 44.6584 23.4877C44.5161 24.2377 43.7234 24.6502 43.4575 24.7747C43.1926 24.8992 43.1115 24.9427 43.1333 25.0349C43.1659 25.1692 43.2885 25.1647 43.5148 25.1354C43.8262 25.0957 45.5006 24.5257 45.5728 23.1412C45.6627 21.3817 43.4436 19.4512 39.5126 19.4669ZM10.3566 26.9249C9.10324 27.9622 7.35369 28.3537 6.60248 28.0237C5.79196 27.6674 6.1132 26.1404 7.65023 25.0394C8.58727 24.3689 9.79712 23.7509 10.5997 23.3707C10.7826 23.2874 11.0505 23.1652 11.3766 23.0167C11.431 22.9934 11.4617 22.9807 11.4617 22.9807L11.4607 22.9792C11.5239 22.9507 11.5882 22.9214 11.6544 22.8907C12.2148 24.4574 11.6722 25.8367 10.3566 26.9249ZM19.4848 22.2172C19.0489 23.0242 18.1356 25.0897 17.5791 24.9787C17.1017 24.8834 16.8111 23.3137 17.4842 21.7687C17.8223 20.9909 18.5458 20.0617 18.9708 19.7009C19.6548 19.1204 20.408 18.9307 20.5909 19.1662C20.8232 19.4662 19.7586 21.7109 19.4848 22.2172ZM27.0256 24.9472C26.8408 25.0207 26.6708 25.0664 26.5927 25.0312C26.5344 25.0049 26.6688 24.9082 26.6688 24.9082C26.6688 24.9082 27.6118 24.1379 27.9834 23.7877C28.1999 23.5837 28.45 23.3414 28.7228 23.0714C28.7248 23.0984 28.7258 23.1254 28.7258 23.1517C28.7238 24.0742 27.5495 24.6967 27.0256 24.9472ZM32.8347 23.9422C32.6963 23.8679 32.7201 23.6272 33.1737 22.8764C33.3517 22.5817 33.7589 22.0859 34.4646 21.6119C34.5467 21.8069 34.5961 21.9937 34.5951 22.1677C34.5862 23.3287 33.495 23.7622 32.8347 23.9422Z" fill="#F06292"/>
</svg>
