<svg width="39" height="23" viewBox="0 0 39 23" fill="none" xmlns="http://www.w3.org/2000/svg">
<g clip-path="url(#clip0_2_19)">
<mask id="mask0_2_19" style="mask-type:luminance" maskUnits="userSpaceOnUse" x="0" y="0" width="39" height="23">
<path d="M0 0H39V22.5818H0V0Z" fill="white"/>
</mask>
<g mask="url(#mask0_2_19)">
<path fill-rule="evenodd" clip-rule="evenodd" d="M19.5 0C14.3 0 11.05 2.50909 9.75 7.52727C11.7 5.01818 13.975 4.07727 16.575 4.70455C18.0584 5.06209 19.1187 6.10127 20.2923 7.25058C22.204 9.12333 24.4169 11.2909 29.25 11.2909C34.45 11.2909 37.7 8.78182 39 3.76364C37.05 6.27273 34.775 7.21364 32.175 6.58636C30.6916 6.22882 29.6313 5.18964 28.4577 4.04033C26.546 2.16758 24.3331 0 19.5 0ZM9.75 11.2909C4.55 11.2909 1.3 13.8 0 18.8182C1.95 16.3091 4.225 15.3682 6.825 15.9955C8.30844 16.3537 9.36867 17.3922 10.5423 18.5415C12.454 20.4142 14.6669 22.5818 19.5 22.5818C24.7 22.5818 27.95 20.0727 29.25 15.0545C27.3 17.5636 25.025 18.5045 22.425 17.8773C20.9416 17.5197 19.8813 16.4805 18.7077 15.3312C16.796 13.4585 14.5831 11.2909 9.75 11.2909Z" fill="#38BDF8"/>
</g>
</g>
<defs>
<clipPath id="clip0_2_19">
<rect width="39" height="23" fill="white"/>
</clipPath>
</defs>
</svg>
