<svg width="29" height="30" viewBox="0 0 29 30" fill="none" xmlns="http://www.w3.org/2000/svg">
<g clip-path="url(#clip0_2_16)">
<path d="M27.6406 0H1.35938C0.608613 0 0 0.628246 0 1.40323V28.5323C0 29.3072 0.608613 29.9355 1.35938 29.9355H27.6406C28.3914 29.9355 29 29.3072 29 28.5323V1.40323C29 0.628246 28.3914 0 27.6406 0Z" fill="#3178C6"/>
<path fill-rule="evenodd" clip-rule="evenodd" d="M16.825 23.2628V26.543C17.3399 26.8162 17.9487 27.0213 18.6517 27.1579C19.3546 27.2947 20.0955 27.363 20.8744 27.363C21.6334 27.363 22.3545 27.2879 23.0376 27.1375C23.7209 26.9872 24.3197 26.7395 24.8346 26.3943C25.3494 26.0491 25.757 25.5982 26.0574 25.0411C26.3576 24.4843 26.5078 23.7958 26.5078 22.9757C26.5078 22.3812 26.4219 21.8601 26.2504 21.4125C26.0787 20.9649 25.8313 20.5669 25.5078 20.2183C25.1845 19.8698 24.7966 19.5572 24.3446 19.2804C23.8924 19.0036 23.3826 18.7422 22.8148 18.4962C22.3991 18.3186 22.0261 18.146 21.6961 17.9786C21.3661 17.8112 21.0856 17.6403 20.8546 17.4661C20.6236 17.2918 20.4453 17.1073 20.3199 16.9125C20.1945 16.7178 20.1318 16.4974 20.1318 16.2514C20.1318 16.0258 20.1879 15.8225 20.3001 15.6414C20.4124 15.4604 20.5708 15.3049 20.7754 15.175C20.98 15.0452 21.2308 14.9444 21.5278 14.8727C21.8248 14.8009 22.1548 14.765 22.5179 14.765C22.782 14.765 23.0607 14.7855 23.3545 14.8265C23.6481 14.8675 23.9436 14.9307 24.2406 15.0162C24.5376 15.1016 24.8263 15.2092 25.107 15.3391C25.3875 15.4689 25.6464 15.6192 25.8841 15.7901V12.7252C25.4022 12.5338 24.8759 12.392 24.3049 12.2998C23.734 12.2075 23.079 12.1614 22.3397 12.1614C21.5872 12.1614 20.8744 12.2451 20.2011 12.4125C19.5279 12.5799 18.9355 12.8413 18.424 13.1967C17.9124 13.552 17.5082 14.0048 17.2112 14.5549C16.9141 15.105 16.7656 15.7627 16.7656 16.5281C16.7656 17.5054 17.0379 18.3391 17.5824 19.0293C18.127 19.7195 18.9537 20.3038 20.0625 20.7821C20.4982 20.9666 20.9041 21.1477 21.2803 21.3254C21.6565 21.5031 21.9816 21.6876 22.2555 21.8789C22.5294 22.0703 22.7455 22.2787 22.9039 22.5042C23.0625 22.7297 23.1415 22.986 23.1415 23.273C23.1415 23.4849 23.0922 23.6814 22.9931 23.8624C22.8941 24.0434 22.7439 24.2006 22.5426 24.3339C22.3413 24.4672 22.0905 24.5715 21.7902 24.6466C21.4899 24.7217 21.1384 24.7593 20.7358 24.7593C20.0493 24.7593 19.3695 24.6347 18.6962 24.3851C18.023 24.1358 17.3993 23.7616 16.825 23.2628ZM11.4873 15.0975H15.6328V12.3952H4.07812V15.0975H8.20335V27.1291H11.4873V15.0975Z" fill="white"/>
</g>
<defs>
<clipPath id="clip0_2_16">
<rect width="29" height="29.9355" fill="white"/>
</clipPath>
</defs>
</svg>
